<?xml version="1.0" encoding="UTF-8"?>
<!DOCTYPE svg PUBLIC "-//W3C//DTD SVG 1.1//EN" "http://www.w3.org/Graphics/SVG/1.1/DTD/svg11.dtd">
<!-- Creator: CorelDRAW X8 -->
<svg xmlns="http://www.w3.org/2000/svg" xml:space="preserve" width="136.806mm" height="132.307mm" version="1.1" style="shape-rendering:geometricPrecision; text-rendering:geometricPrecision; image-rendering:optimizeQuality; fill-rule:evenodd; clip-rule:evenodd"
viewBox="0 0 94264 91165"
 xmlns:xlink="http://www.w3.org/1999/xlink">
 <defs>
  <style type="text/css">
   <![CDATA[
    .str0 {stroke:black;stroke-width:137.808}
    .fil1 {fill:none}
    .fil0 {fill:white}
   ]]>
  </style>
 </defs>
 <g id="Слой_x0020_1">
  <metadata id="CorelCorpID_0Corel-Layer"/>
  <g id="_2942763484912">
   <polygon class="fil0" points="244,69 70,7768 979,7725 1324,54304 763,54354 287,57122 546,59285 6501,59219 6501,91164 87997,91164 87997,58311 93803,58247 93457,56603 93328,53402 93501,7552 93933,7552 94193,415 "/>
   <polygon class="fil1 str0" points="93328,53402 1324,54304 979,7725 93501,7552 "/>
   <polygon class="fil1 str0" points="94193,415 93933,7552 70,7768 244,69 "/>
   <polygon class="fil1 str0" points="287,57122 763,54354 93328,53402 93457,56603 "/>
   <polyline class="fil1 str0" points="287,57122 546,59285 93803,58247 93457,56603 "/>
   <line class="fil1 str0" x1="6501" y1="59219" x2="6501" y2= "91164" />
   <line class="fil1 str0" x1="33578" y1="58917" x2="34012" y2= "91164" />
   <line class="fil1 str0" x1="61001" y1="58612" x2="61522" y2= "91164" />
   <line class="fil1 str0" x1="87997" y1="58311" x2="87997" y2= "91164" />
   <line class="fil1 str0" x1="33831" y1="77700" x2="61299" y2= "77260" />
   <line class="fil1 str0" x1="61336" y1="79518" x2="33860" y2= "79888" />
   <line class="fil1 str0" x1="10655" y1="7707" x2="10841" y2= "34630" />
   <line class="fil1 str0" x1="12428" y1="7704" x2="12355" y2= "30823" />
   <line class="fil1 str0" x1="10690" y1="12841" x2="12412" y2= "12847" />
   <polyline class="fil1 str0" points="10452,35711 10452,34543 12787,34543 "/>
   <path class="fil1 str0" d="M9457 51845c940,-2171 2579,-729 4327,-2786 679,-800 -2143,209 -8,-1354 841,-616 18,-733 1516,-1444 268,-127 3673,-4944 6263,-2558 174,160 811,2220 2415,3099 330,181 -3274,2823 -3302,2934 -554,2170 1356,1928 -3537,2257 -1025,69 -1446,534 -3945,534 -583,0 -3411,156 -3383,-163"/>
   <path class="fil1 str0" d="M15660 52297c-3792,-2625 1954,-15 -969,-2509 -365,-311 412,-583 635,-1587 215,-968 952,-370 952,-1903 1988,0 1158,372 2234,620 691,1995 -1409,1120 1320,2509 11,6 1320,2408 -440,2408 -2266,0 -1593,-143 -3732,462z"/>
   <path class="fil1 str0" d="M20833 51153c56,901 2497,1340 2561,375 -688,776 586,963 1347,696 487,-171 2160,314 2285,-15 2232,-694 1927,1055 2051,-1236 44,-795 1317,1417 1990,559 347,-442 1195,152 1719,-382 608,-619 1137,364 314,-685 -290,-370 -247,-1701 -382,-1701 -1711,0 -220,-231 -220,-1608 0,-1096 517,-636 -1254,-724 -419,-21 -564,-941 -1712,-621 -700,195 -1122,-454 -368,-995 1510,-1082 -128,-3235 -1420,-2242 -1632,1254 -1410,873 -2996,1572 -253,112 -1280,1652 -998,2365 27,68 17,92 -5,157"/>
   <path class="fil1 str0" d="M23990 42589c13,175 363,1261 456,1373 -42,114 237,161 302,184"/>
   <path class="fil1 str0" d="M24553 41810c471,77 1084,1481 1225,1928"/>
   <path class="fil1 str0" d="M26629 39777c1,2 -322,1189 -316,1385 20,705 -133,543 1128,1012 929,345 1136,-1502 1734,-1640 1335,-308 1742,-729 1687,-2198 -33,-890 -2266,-2247 -3810,-429 -318,374 -451,1408 -531,1913l108 -43z"/>
   <path class="fil1 str0" d="M26283 38739c-699,861 -758,1523 -1300,2034 -945,891 62,1322 -2128,1455 -1226,75 -1887,1001 -335,1053"/>
   <path class="fil1 str0" d="M21179 42632c420,-911 1056,-1416 1987,-1788 62,-24 646,-248 651,-245"/>
   <path class="fil1 str0" d="M9889 50288c-2811,-1334 -4329,1157 -4880,-1733 -173,-910 -2301,-523 -229,-2264 184,-155 6910,-3608 5450,-3540 -1618,76 463,-531 -606,-974 -113,-414 730,169 72,-489 -504,-504 2456,-1368 3215,-1911 1745,-1247 2000,93 1016,-2076 -377,-831 -694,340 -756,-1125 -8,-182 -187,-239 -340,-249 1137,-1836 -1177,336 -14,-1394 -2476,-165 1274,-705 -786,-1117 -410,-83 -1234,-2668 1745,-2005 862,192 97,-261 858,440 75,2 5204,-692 418,-692 -750,0 -828,-390 -937,-1298 2139,-1174 884,33 274,-1211 -181,-369 645,-97 591,-1470 -21,-529 1054,-205 1204,-1283 26,-190 283,-649 613,-621 0,-3716 1296,84 1745,-2761 316,-73 1630,-287 1888,-7 721,-1721 -1080,-2723 650,-2098 1615,582 723,-1189 1303,496 248,722 1992,2602 1940,3159 -1964,190 606,334 606,952 0,2681 4261,5511 2768,8651 -130,923 384,2172 1125,2855 -2440,-1035 -636,-3432 -2020,-4815 -745,-746 -259,750 -1095,2155 -199,335 -173,1276 -173,1708 -1426,-109 -727,-2433 -2896,-801 -1116,839 1655,1356 -2178,2581 -1720,549 -541,2034 1434,1270 791,-306 461,-1247 -426,-974"/>
   <path class="fil1 str0" d="M22649 34759c184,435 657,2318 1341,563"/>
   <path class="fil1 str0" d="M20054 38652c-1228,3225 3671,-234 3671,-256 -19,-1852 2443,802 2515,-1950"/>
   <path class="fil1 str0" d="M25201 37787c-600,1117 1906,753 1891,270 -6,-176 -61,-1062 99,-1092"/>
   <path class="fil1 str0" d="M29440 33462c-57,-1374 -160,-1102 -316,-2260 -210,-43 16,-707 725,-50 289,268 105,-1517 -249,-1464 -494,75 -1054,-1723 -133,-1218 152,83 178,-2723 630,-2109 1192,1620 -753,1168 538,-479 2,-3 624,-502 707,32 12,80 530,1362 533,1367 278,-9 -338,-3160 580,-714 624,1661 -809,3536 771,2574 213,402 -866,1335 -1106,1574 1000,461 -90,-668 -141,916 -26,832 2196,-678 617,1266 -571,702 -739,254 -177,1593 276,655 627,969 -94,1777 -412,462 -209,-108 -626,754 -160,330 -568,1091 -837,1315"/>
   <path class="fil1 str0" d="M32858 33332c438,-1790 584,-1469 502,-3230 -25,-535 1181,-439 97,-1570 -663,-693 1834,-1558 2383,-1904 1416,-891 2060,1111 3291,689 309,-106 -406,1151 1381,3 596,-383 674,529 1600,833 753,248 -156,2247 724,3521 398,576 -107,1342 779,1569 731,186 -1443,1230 -2062,1777 -905,799 -1622,-19 -2149,1647 -243,770 -472,579 -818,2097 -283,1245 -1143,-138 -1283,-180 -1519,-462 226,453 -605,-378 -954,-954 -176,1354 -476,-995 -21,-166 -1270,558 -1474,1564 -307,1510 -613,-1054 216,-2213 546,-764 -1011,749 -1093,848 -50,-222 1716,-3673 -425,-1961 -1119,894 835,2792 -1748,2631 -24,-2 -924,201 -757,406 89,109 117,570 143,599"/>
   <path class="fil1 str0" d="M31603 43800c-1834,973 -149,1246 -139,890 6,-221 -35,-302 53,-544"/>
   <path class="fil1 str0" d="M33398 43389c-959,-401 -780,-1506 -110,-948 7,6 1284,-287 110,948z"/>
   <path class="fil1 str0" d="M32685 41118c-2483,-2141 -1181,-3283 -1181,-108 0,695 -1192,-515 -127,761 409,489 93,1011 -33,1337"/>
   <path class="fil1 str0" d="M30565 42848c-663,-1071 -1137,-774 -655,-1996 443,-83 256,424 1025,322"/>
   <path class="fil1 str0" d="M33247 39993c-629,-509 -613,-670 -1268,-1178 -533,-414 1149,-513 1590,342 41,80 108,164 197,187"/>
   <path class="fil1 str0" d="M35539 39691c1,-1068 341,-106 726,-923 90,-189 217,-318 27,-572"/>
   <path class="fil1 str0" d="M35150 41507c-27,-300 182,-1206 506,-1178 37,-179 725,195 83,952 -66,77 -156,255 -156,356"/>
   <path class="fil1 str0" d="M35366 42502c383,-28 2687,-881 2146,58 -65,112 -2033,123 -2232,245"/>
   <path class="fil1 str0" d="M34718 43475c-969,779 -2407,1170 -634,1223 1140,34 508,-1004 587,-1312l47 89z"/>
   <path class="fil1 str0" d="M33593 45833c3,-1 1035,226 754,-551 -31,-86 -252,-562 -263,-584"/>
   <path class="fil1 str0" d="M37097 39474c-405,1601 -353,508 419,1176 250,217 36,759 -117,987"/>
   <path class="fil1 str0" d="M36404 42675c-253,334 -1770,2024 -1892,1962"/>
   <path class="fil1 str0" d="M33463 46482c-199,369 -33,547 -173,1038"/>
   <path class="fil1 str0" d="M28619 35279c77,-405 534,-558 686,-1250 53,-242 76,-180 135,-567"/>
   <path class="fil1 str0" d="M35885 30348c1656,-406 525,840 1298,1041 1378,358 -465,280 1413,1769l101 88"/>
   <path class="fil1 str0" d="M21222 25589c907,1186 2175,3282 3114,4283"/>
   <path class="fil1 str0" d="M19319 27882c250,251 3221,3175 3287,3547"/>
   <path class="fil1 str0" d="M18627 30607c208,526 1970,1527 2552,1773"/>
   <path class="fil1 str0" d="M17848 34846c956,-1609 393,-747 2103,-1095 18,-4 166,10 190,14"/>
   <path class="fil1 str0" d="M12831 35927c-342,-31 -3186,-247 -3171,246 39,1308 399,-49 432,739 6,123 -639,325 -71,526 334,119 -665,133 21,1114 129,185 -404,-21 -198,746 104,388 -63,1046 179,1458"/>
   <path class="fil1 str0" d="M42806 34197c1188,1448 -289,4353 1854,6254 904,802 -1058,1181 2487,2287 756,236 -82,1735 771,2934 856,1202 -3078,-232 -3235,-30 -482,617 -2869,831 -2877,418 -5,-243 -1085,-3171 -2833,-2415 -765,331 -2072,-492 -2569,-970"/>
   <path class="fil1 str0" d="M35496 43713c2972,1719 1968,2812 4226,1605 161,-86 1346,1021 2501,1031 2880,25 600,-340 3166,-922 846,-192 1340,1255 1340,2096 0,5443 -1469,3398 -2170,3893 -2663,1879 -3171,375 -6604,375 -2436,0 -1706,-472 -4326,-338 -229,12 -2115,-96 -843,-303"/>
   <path class="fil1 str0" d="M45488 33116c524,-1130 -2640,-6560 -1668,-3010 166,607 -478,115 -811,-1226 -344,-1391 -1591,-2689 199,-2314 320,68 87,996 634,-464 734,-35 719,1653 1503,11 0,875 1175,-1646 1042,803 -9,161 -177,498 -177,1272 0,1667 -279,1361 784,2971 881,1335 -404,-3749 -128,-2859 100,0 880,-240 937,-291 -1053,-3305 596,-1003 609,-1546 24,-970 945,-512 1392,-783 319,172 -1447,3713 656,1863 581,-511 623,2056 1377,-36 330,-915 1070,-1936 1982,-2374 1703,-817 670,-378 1644,619 436,447 -1908,1354 -2703,3250 -425,1014 -2294,3378 -2181,4579 402,-1098 3851,-870 4577,-2465 6,-13 270,1153 -338,1305 -3257,815 -2487,-263 -3677,2847 -283,739 -1652,565 -570,1809 344,-240 1167,-3557 2675,-1881 512,569 1484,-1985 3003,321 519,787 -724,1742 -696,2390 31,722 -2391,-732 -631,476 916,629 891,-51 891,1124 -694,208 -1754,-2413 -3937,-1568 -254,98 -1799,-832 -457,184 380,288 1520,1934 324,1903 -1428,-37 -39,1084 1687,559 682,-208 -627,523 -2191,523 -2414,0 -230,411 -1384,-1176 -224,-308 37,901 -1712,833 -154,-6 -373,-395 -250,724 86,778 -412,1755 -957,1209l211 40"/>
   <path class="fil1 str0" d="M44926 32380c-324,-45 -2554,-1450 -3504,-1816"/>
   <path class="fil1 str0" d="M54442 30131c-229,-1982 -1023,-2678 459,-1611 213,154 129,1496 346,109 55,-355 408,-3584 750,-2884 238,487 878,1961 731,2516 -564,2142 1778,-3409 1294,-747 -118,655 -1390,3032 -296,1577 468,-622 -149,2586 810,40 788,-2092 216,1380 596,2468 128,365 1027,-568 581,807 -140,431 1831,1190 2040,1230 -93,397 -2786,247 113,1636 1445,692 712,693 -1205,972 -1783,261 -2787,53 -3103,1921 -70,413 -1081,3137 -1616,3116 -309,-13 -675,1 -981,10"/>
   <path class="fil1 str0" d="M47088 47433c916,-873 958,-1368 1551,-2027 273,-302 646,-278 988,-168 14,-13 48,-1205 544,-1870 130,-175 858,-140 891,-88 206,322 335,1009 600,-249 129,-614 185,-340 1281,-345 1185,-5 247,-235 1480,-897 165,-89 1440,82 2323,-355 860,-425 1232,480 1636,580 311,77 2068,524 2277,265 -511,-131 -145,1392 -153,1838 -15,840 1687,817 1687,1143 0,838 -94,1146 1007,1368 330,67 667,959 829,1254 302,553 -1132,2021 -291,2475 386,208 180,139 -179,472 -147,137 -871,660 -1088,662 -804,7 -1394,-714 -1825,-502 -776,383 -1222,276 -1894,828 -579,475 -1324,-842 -2727,-116 -2189,1133 -840,-234 -2520,-234 -638,0 -890,165 -1782,128 -773,-32 -1309,-80 -2002,169 -307,111 -265,-211 -411,-677 -141,-450 -135,-749 -452,-1138 -308,-377 533,-582 -132,-664 -1179,-147 -1034,108 -1296,-734 -31,-101 -171,-1315 -125,-1334"/>
   <path class="fil1 str0" d="M64996 46568c1893,-1449 -9,-3793 2023,-2808 134,65 709,-728 963,-378 644,-966 -573,-1672 1240,-1557 2419,154 173,-2428 4047,-1226 1415,439 1123,-674 2204,487 1045,1124 2841,254 1593,2274 -1570,2541 457,1759 252,3522 -126,1077 -3418,1324 -2714,2181 1240,1512 574,2014 -852,2560 -368,-489 365,-889 -1200,-1324 -536,-149 -1408,478 -2249,660 -588,128 -2472,153 -2725,800 -842,270 -3071,222 -3893,11 -287,-828 788,-387 688,-2300 -63,-1222 795,-395 318,-3143 -8,-47 -29,-188 2,-235"/>
   <path class="fil1 str0" d="M75853 51586c4181,-2658 2124,-84 5454,-32 1846,28 366,-2224 3652,-303 946,553 384,-1298 1788,-1298 1754,0 -68,-559 -385,-2475 -124,-745 -445,-151 -1629,-301 -1410,-178 -336,-1947 -1997,-1978 -2143,-40 231,-874 374,-1096 294,-457 -755,-830 -974,-883 -97,-254 -562,-262 -713,-1485 -56,-457 -1388,355 -1388,-606 0,-331 175,-1888 412,-2116 -1365,-487 -1604,120 -938,-1138 272,-515 355,-1159 -281,-22 -177,317 -1289,1433 -1564,987 -1654,-2678 -389,935 -1424,858 -453,-34 -1298,159 -1555,382"/>
   <path class="fil1 str0" d="M65515 33635c-2,-66 457,-4176 -669,-3374 -835,595 -3540,-1954 -599,-1683 464,42 114,-6 -262,-1065 -1038,-2932 -15,-1031 -2672,-1749 -1282,-347 -1454,-2086 -2518,-3410 -33,-41 -868,-1357 -870,-1363 32,85 1075,146 1283,345 1095,1047 1483,1227 2340,2387 484,655 1892,1232 2703,1680 213,-286 -1031,-2009 -711,-2621 61,182 -3043,139 1030,-493 947,-148 -269,-445 -1382,-1593 -970,-1001 -1004,-1546 -1485,-2795 -15,-37 -16,-684 -11,-750 1053,522 3762,2083 3680,3425 -60,979 863,2088 1125,3208 326,1394 1124,1057 1124,3763 12,-3 1116,-1841 923,-2116 -648,-924 -1946,-2155 -1176,-2926 1401,-1405 645,-314 -1033,-1767 -355,-307 931,-747 425,-1550 18,-3 2650,731 2635,1186 -44,1273 64,2548 295,3781 211,1126 -575,1527 711,-403 547,-823 -1306,-3107 320,-3346 135,-19 400,1722 1803,243 695,-734 -394,-2707 598,-891 350,639 -397,1684 -397,3082 0,2059 -929,1993 -2065,3625 -1103,1584 -1000,4407 -1276,4842 -65,101 -61,171 -149,252"/>
   <path class="fil1 str0" d="M61752 33635c7,-258 893,-2228 2045,-1337 511,394 999,466 1588,169"/>
   <path class="fil1 str0" d="M64477 36273c-134,-2718 -267,-943 778,-1470"/>
   <path class="fil1 str0" d="M65991 35235c363,-1981 663,-2269 1673,-3752 91,-132 -128,4850 890,-1229 374,-2234 9,3563 465,3247 359,-249 736,-2098 1060,-1895 338,211 1046,-759 1046,122 38,-767 -303,-2452 -303,-3575 141,8 1407,896 1856,720 -26,775 -311,1573 -126,2351 196,20 -306,442 942,-291 2065,-1213 915,-300 644,-1263 1062,-1109 1043,-381 1136,-2429 48,-1058 1861,1476 475,2660 -466,399 -2735,3745 -2162,3745 604,0 1629,335 1986,-230 -439,364 -696,1047 -927,1272 1398,-275 2520,-2810 1334,303 -316,831 1532,-732 894,767 -186,436 566,-295 566,-1333 340,-277 585,1917 1168,2119 0,1104 718,-990 566,1146 -62,870 -1256,1144 -2024,1092"/>
   <path class="fil1 str0" d="M68586 37138c5593,-1076 795,-320 3002,33 2015,322 2712,-90 701,1308 -2,2 129,-140 433,217 79,93 170,159 276,216"/>
   <path class="fil1 str0" d="M64607 42459c-2468,-2191 1459,-1281 496,-933 -313,113 -614,203 -929,327"/>
   <path class="fil1 str0" d="M63395 40080c1255,-2604 230,-2411 766,-4488 57,-221 -124,-635 576,136 725,800 -436,3430 1414,1897 0,1817 -758,1108 370,1432 284,81 668,891 1388,1228 286,134 -143,241 -318,314"/>
   <path class="fil1 str0" d="M61319 41421c-1286,-3733 838,1471 809,-1714 -16,-1692 1394,-554 1341,-1177 -13,-155 42,-160 186,-224"/>
   <path class="fil1 str0" d="M70489 35192c61,-510 1937,-3367 1836,-2477 -10,83 -133,1944 58,1905 677,-139 1322,-1026 1078,587 -91,599 692,-447 692,959 0,1034 2249,-229 2249,126 0,413 -346,901 -592,1236"/>
   <path class="fil1 str0" d="M92290 46265c-2757,106 -5582,262 -8320,358"/>
   <path class="fil1 str0" d="M3877 47520c-85,8 -2678,158 -2602,139"/>
  </g>
 </g>
</svg>
