<?xml version="1.0" encoding="UTF-8"?>
<!DOCTYPE svg PUBLIC "-//W3C//DTD SVG 1.1//EN" "http://www.w3.org/Graphics/SVG/1.1/DTD/svg11.dtd">
<!-- Creator: CorelDRAW X8 -->
<svg xmlns="http://www.w3.org/2000/svg" xml:space="preserve" width="250.169mm" height="173.18mm" version="1.1" style="shape-rendering:geometricPrecision; text-rendering:geometricPrecision; image-rendering:optimizeQuality; fill-rule:evenodd; clip-rule:evenodd"
viewBox="0 0 111019 76853"
 xmlns:xlink="http://www.w3.org/1999/xlink">
 <defs>
  <style type="text/css">
   <![CDATA[
    .str0 {stroke:black;stroke-width:88.7551}
    .fil0 {fill:none}
   ]]>
  </style>
 </defs>
 <g id="Слой_x0020_1">
  <metadata id="CorelCorpID_0Corel-Layer"/>
  <g id="_2942763547952">
   <g>
    <polygon class="fil0 str0" points="100404,4898 32302,4115 31676,36835 100873,37305 "/>
    <polygon class="fil0 str0" points="27136,42158 28076,45 104787,671 105257,42784 "/>
    <path class="fil0 str0" d="M30999 37618c-2,1 -2526,2628 -2505,2661"/>
    <path class="fil0 str0" d="M101448 38557c908,200 2184,1503 2661,2348"/>
    <path class="fil0 str0" d="M100352 4898c596,-630 2008,-2104 2662,-2662"/>
    <path class="fil0 str0" d="M31468 3332c-295,-147 -1006,-774 -1096,-1096"/>
    <polyline class="fil0 str0" points="111011,42847 1,41532 111018,43943 "/>
    <polyline class="fil0 str0" points="33190,44663 99256,44819 100223,76852 "/>
    <line class="fil0 str0" x1="4071" y1="43880" x2="3159" y2= "76852" />
    <line class="fil0 str0" x1="33190" y1="44663" x2="32435" y2= "76852" />
    <line class="fil0 str0" x1="32766" y1="62724" x2="99816" y2= "63356" />
    <line class="fil0 str0" x1="32715" y1="64915" x2="99853" y2= "64598" />
    <path class="fil0 str0" d="M31781 30729c3064,-2273 1624,-3179 6524,-1164 1764,725 -87,1268 1624,-640 1289,-1437 2059,1333 2995,-894 1126,-2682 3130,1886 6465,1742 516,-23 -316,2162 -281,3717 66,3015 -270,2764 -3890,2936 -1323,63 -271,-601 -1974,58 -322,125 -11619,-779 -12191,-834 -144,-13 -297,-158 -524,-67"/>
    <path class="fil0 str0" d="M39922 28851c-947,-2497 -3374,-3853 -749,-2894 1930,705 918,-815 130,-1409 -6,-4 1506,182 901,-1194 -205,-466 1006,371 855,-65 -847,-2434 2095,355 2413,626 -180,1019 -548,-1982 -548,-2576 0,-2619 -476,329 1024,-1004 -391,1107 2210,-2812 358,1708 -1571,3834 4010,-2454 3100,253 -825,2453 2806,-1019 1910,816 -313,641 721,-454 574,1416 -58,746 2034,-1005 998,1409 -544,1268 7368,-1022 6150,-150 -4866,3485 94,2186 -2458,4344 -1150,972 2898,787 -782,2551 -342,164 923,714 -783,1794 -1104,699 -3182,354 -4012,868"/>
    <path class="fil0 str0" d="M53856 35896c-732,-4235 -1760,-2116 3314,-3064 647,-120 319,-1967 3250,-2035 2768,-64 -1361,-1364 -146,-3406 1106,-1858 -1796,-4670 1899,-4513 670,28 287,926 2791,469 2727,-497 1663,891 3257,-65 359,-215 1557,1908 2930,2532 1598,727 1411,2060 1988,3431 587,1397 -129,1144 841,2113 234,235 762,2274 -1192,2615 -2461,429 -3897,502 -6187,1228 -387,123 -5089,1892 -5146,572 -55,-1285 3961,-1345 4704,-4068 328,-1202 386,-229 -2467,1174 -3333,1639 -1224,2416 -4460,2765 -907,97 -2374,577 -3777,619 -1038,31 -2076,594 -3008,-367"/>
    <path class="fil0 str0" d="M72486 27285c-2426,-1002 -1456,-4451 -2022,-4640 79,590 3094,2143 3066,1094 -115,-4244 21,-58 3350,-1441 4333,-1798 1453,294 2912,920 1274,-804 -1450,3894 -4012,5687 -14,10 -613,255 -633,259"/>
    <path class="fil0 str0" d="M76947 29164c227,-101 3135,-4268 6421,-5633 4080,-1694 -5042,-3298 -3954,-4717 218,-284 1702,-2270 1886,-2270 3902,0 1419,195 1695,-3288 17,-215 2600,-1170 3001,1991 180,1416 2131,3176 3717,2022 715,-520 2654,-599 3165,136 1501,2159 7367,-81 7763,1899 163,815 -2056,1515 -3330,2127 -898,430 -3201,548 -2724,847 877,551 3222,4051 3196,4051 -2488,-7 -4837,-3874 -5831,272 -621,2591 -3001,1248 -3001,6851 0,1122 -1667,3047 -2662,3209 -4901,801 -10924,-1680 -11350,-1644 -779,67 676,-1561 -143,-3209 -1077,-2168 821,-1262 463,-2903 -76,-349 1492,346 1688,259z"/>
    <path class="fil0 str0" d="M88961 32831c1974,1625 -1488,-3970 -1341,-4232 8565,-299 1193,-5532 8673,-2362 2315,981 3693,-535 3845,2981 63,1474 1844,1273 -613,3417 -1451,1267 503,2022 -5591,2389 -1150,69 -8807,-418 -4973,-2193z"/>
   </g>
   <line class="fil0 str0" x1="99236" y1="43687" x2="99268" y2= "45192" />
   <line class="fil0 str0" x1="33016" y1="42249" x2="33190" y2= "44663" />
   <path class="fil0 str0" d="M24963 59457c-9,164 -644,9545 691,7157 48,-86 576,-7975 -691,-7157z"/>
   <path class="fil0 str0" d="M103005 59144c-1570,9694 2230,9659 1150,7654 -65,-120 -174,-7299 -1150,-7654z"/>
   <path class="fil0 str0" d="M42418 26659c-1431,-3860 246,-121 1307,-1270 1086,178 832,2189 1519,391 37,-99 1584,-1741 1599,-1232 69,2337 -1861,3788 3117,606 1585,-1013 -3214,3757 -1415,3757 894,0 5732,-456 2797,722"/>
   <path class="fil0 str0" d="M41636 32765c5237,913 270,-2715 3420,-852 24,14 -2772,-864 -2951,695"/>
   <path class="fil0 str0" d="M37252 33078c-594,-1958 -186,-3062 -2641,-586 -955,965 3730,2168 2036,-861l-178 -119"/>
   <path class="fil0 str0" d="M63397 29633c-1244,314 -1390,1595 497,-180 949,-894 2639,1063 3972,-20 585,-476 2913,-847 98,-913 -1058,-25 -292,1024 -3124,85 -1312,-434 -2449,1194 -2226,1342"/>
   <path class="fil0 str0" d="M87506 22041c-377,-228 -8005,-3352 -4376,-2105 1981,682 3107,404 4178,1987l198 118z"/>
   <circle class="fil0 str0" cx="47037" cy="18596" r="391"/>
   <circle class="fil0 str0" cx="52438" cy="15700" r="391"/>
   <circle class="fil0 str0" cx="48054" cy="11786" r="391"/>
   <circle class="fil0 str0" cx="64336" cy="18205" r="391"/>
   <circle class="fil0 str0" cx="69502" cy="10064" r="391"/>
   <circle class="fil0 str0" cx="59483" cy="9908" r="391"/>
   <circle class="fil0 str0" cx="36000" cy="8499" r="391"/>
   <circle class="fil0 str0" cx="58857" cy="21806" r="391"/>
   <circle class="fil0 str0" cx="90637" cy="10377" r="391"/>
  </g>
 </g>
</svg>
