<?xml version="1.0" encoding="UTF-8"?>
<!DOCTYPE svg PUBLIC "-//W3C//DTD SVG 1.1//EN" "http://www.w3.org/Graphics/SVG/1.1/DTD/svg11.dtd">
<!-- Creator: CorelDRAW X8 -->
<svg xmlns="http://www.w3.org/2000/svg" xml:space="preserve" width="146.358mm" height="130.129mm" version="1.1" style="shape-rendering:geometricPrecision; text-rendering:geometricPrecision; image-rendering:optimizeQuality; fill-rule:evenodd; clip-rule:evenodd"
viewBox="0 0 115666 102840"
 xmlns:xlink="http://www.w3.org/1999/xlink">
 <defs>
  <style type="text/css">
   <![CDATA[
    .str0 {stroke:black;stroke-width:158.059}
    .fil1 {fill:none}
    .fil0 {fill:white}
   ]]>
  </style>
 </defs>
 <g id="Слой_x0020_1">
  <metadata id="CorelCorpID_0Corel-Layer"/>
  <g id="_2942772695568">
   <polygon class="fil0" points="79,4343 523,61728 523,64514 2180,64883 2180,102175 115587,99622 115587,62330 115329,59303 114666,58657 114552,11680 115064,11396 115121,3092 106876,2317 106049,2208 86810,841 71482,216 56841,92 39683,575 16262,2358 "/>
   <g>
    <g>
     <line class="fil1 str0" x1="365" y1="12249" x2="694" y2= "61159" />
     <path class="fil1 str0" d="M694 61159c35660,1239 73651,405 113972,-2502l-114 -46977c-39422,-2298 -77476,-896 -114187,569 -304,-6484 -286,-7906 -286,-7906"/>
     <path class="fil1 str0" d="M114552 11680c0,0 171,-95 512,-284 0,0 19,-2768 57,-8304 -31929,-3146 -68804,-5289 -115042,1251"/>
     <path class="fil1 str0" d="M523 61728c0,1857 0,2786 0,2786 41249,1228 78842,716 115053,-2673 0,0 0,-853 0,-2559 -36672,3144 -74264,3580 -115053,2446z"/>
     <rect class="fil1 str0" x="2180" y="64883" width="1585" height="37292"/>
     <rect class="fil1 str0" x="26965" y="65469" width="1585" height="37292"/>
     <rect class="fil1 str0" x="62898" y="65334" width="1585" height="37292"/>
     <rect class="fil1 str0" x="91026" y="64417" width="1585" height="37292"/>
     <rect class="fil1 str0" x="114002" y="62330" width="1585" height="37292"/>
     <path class="fil1 str0" d="M5482 101652c-152,-23810 -227,-35716 -227,-35716 9023,203 15582,279 19677,228 0,23810 0,35716 0,35716"/>
     <path class="fil1 str0" d="M30051 102790c-237,-10692 -313,-22863 -228,-36513 11172,631 20247,-113 31280,114 304,23735 455,35602 455,35602"/>
     <path class="fil1 str0" d="M65653 102676c-258,-8189 -334,-20397 -227,-36626 15999,-875 24075,-1292 24227,-1251 38,12019 76,24038 114,36057"/>
     <path class="fil1 str0" d="M94089 100856c0,0 -113,-12095 -341,-36285 12512,-758 18768,-1137 18768,-1137 152,23583 227,35374 227,35374"/>
    </g>
    <path class="fil1 str0" d="M7768 57846c-304,-442 -2731,-3608 -2719,-3313 46,1158 -1443,-967 0,-910 325,13 573,-1577 673,-227 6,82 1165,991 1033,-683 -148,-1891 683,2192 683,-1479 1298,-95 703,2708 2076,1736 1045,-739 -1015,1680 1934,-341 1087,-745 -174,2458 712,-228 326,-989 3680,1422 1534,1222 -238,-22 -2093,3170 -3509,3915l-370 194"/>
    <path class="fil1 str0" d="M11200 56711c657,780 1299,-106 2312,770 2988,2584 10833,795 14389,-204 -1096,821 -1649,-2081 -2482,-3443 -1078,-1763 2695,-3196 -845,-3055 -3123,125 -2626,-6002 -6503,-5034 -2103,526 -1413,-1814 -2622,-169 -1240,1688 -2877,-1943 -1785,2331 209,817 -1257,831 -2681,3119 -450,724 -1135,1004 -929,1346"/>
    <path class="fil1 str0" d="M9815 50339c98,-4559 801,-1629 2865,-2536 580,-256 -273,-701 732,-972"/>
    <path class="fil1 str0" d="M16583 45448c-1076,-3567 -1638,89 172,-1721 -59,-510 -1461,-92 -227,-474 0,-938 -2003,-1459 84,-1459 -162,28 -289,-2162 39,-2162 2154,0 -967,1574 -125,584"/>
    <path class="fil1 str0" d="M17095 39681c217,-1547 -1426,-1419 134,-1541 337,-926 -1871,-533 322,-1117 1064,-283 -1375,-1294 -426,-1495 942,-199 -1383,-692 587,-1079 301,-59 1286,-1295 1380,-37 54,729 1635,-1238 430,1 -2404,2474 2066,-321 281,1130 -561,456 326,328 -214,1239 -104,175 498,-6 -171,971 -121,178 -230,745 -819,1009 1609,496 -646,718 90,971 221,635 -388,439 185,762 398,225 -1302,1225 71,1151 416,-22 -1397,2019 -758,2159 618,135 -159,1751 -556,1665l440 275"/>
    <path class="fil1 str0" d="M18520 33916c-1066,-780 -114,-1225 -670,-1677 0,-71 1168,-408 -711,-1627 -989,-641 698,279 -327,-705 -410,-394 1030,244 786,-294 -508,-1122 825,-1324 -1046,-2535 848,-391 1951,1791 478,-996 -377,-712 1692,1051 442,-50 -453,-399 -2872,-1310 -527,-954 646,98 1525,1479 33,-636 -397,-561 -726,186 360,-346 426,-208 -579,-786 621,-786 -1180,0 -2466,-1179 -925,-1138 19,1 -938,-1331 -2151,-222 -166,151 -398,-1581 1441,-1360 121,-156 -1743,-1889 57,-1892 778,-1 -581,3539 1942,1016 415,304 -205,487 536,1042 313,234 -1914,1568 -37,1293 297,318 -1871,2817 465,1370 635,-394 -1540,1262 -247,1308 78,3 -228,1085 -228,1721 0,1315 -1408,1723 285,2047 91,795 -761,72 -52,2057 206,580 543,2586 -403,2896 -303,99 -218,139 -122,468z"/>
    <path class="fil1 str0" d="M20223 27590c46,-913 -495,-2745 983,-1929 718,-828 -1433,-2152 919,-1427 560,173 -1251,-1349 13,-1493 675,-77 874,-696 257,-976 -664,-302 748,181 1308,-1204 36,-89 957,-1557 1147,-1578 1350,-147 408,1600 1469,294 636,0 -1446,1913 844,536 1534,-922 -257,-1224 1019,-1115 -879,-1632 819,-1050 697,-355 0,-103 19,-2431 744,-1247 540,884 3203,-1069 2312,247 -386,571 868,-853 868,710 0,11 1083,1176 -1458,1338 -655,41 -2065,-996 -429,265 326,251 1051,422 -736,365 -2360,-75 -453,-862 -302,806 46,512 -2204,-673 -1024,94 1186,771 -1834,1001 -729,1507 823,377 -551,405 -606,1948 -37,1015 -2051,881 -1934,1730 101,737 -435,22 -403,1128 53,1841 -1057,-749 395,2538 1600,3625 -1076,2162 -1021,4524 18,744 -789,-42 -351,910 458,993 -2325,110 -455,1843 434,402 -5,353 -399,1290"/>
    <path class="fil1 str0" d="M20849 40727c-97,-651 101,-2318 -387,-2744 161,-861 1258,-765 170,-1649 694,-2236 175,1549 228,-905 16,-769 728,153 -811,-603 -948,-466 995,204 1399,-915 609,-1691 1292,-315 -608,-1432 -1062,-623 2590,-151 1835,-685 -828,-586 -726,-853 -265,-1195 -93,-407 -1246,-532 227,-1023 673,-225 -1611,-523 90,-1958 479,-405 -40,-925 1152,-1692 671,-432 -217,-1039 848,-1649 614,-352 1033,-1472 1354,-1749"/>
    <path class="fil1 str0" d="M27275 39931c230,-68 -225,-2293 201,-2427 165,-52 37,-820 28,-834 -706,-1111 725,-958 128,-1474 -1157,-1000 -118,-1127 -630,-1877 -503,0 1094,-1996 1479,-2218 1643,-946 -3481,320 -1005,-1332 2029,-1353 687,-1624 1175,-2008 2593,-2043 -884,-1118 47,-1645 1627,-919 -1035,-205 497,-806 2780,-1089 679,-768 1115,-1218 612,-633 -41,-1169 -465,-1294 -665,-196 2723,52 1840,-1350 -892,-1417 2443,-197 1392,-977 -2041,-1516 796,-274 811,-1530 11,-854 1171,263 645,-1413 -311,-994 1267,-17 1697,-526 -215,-1120 -1909,-622 117,-24 318,93 1321,-1102 1563,-1388 708,3321 -853,244 -785,2896 19,729 -531,-465 -621,1364 -26,545 -440,-1070 -511,750 -19,460 -1521,-323 -631,222 1644,1008 -2850,948 -1194,1061 1141,78 -1556,1065 -1432,1464 354,1140 -1244,1180 166,878 99,172 -865,2170 -1024,2341 -836,905 1158,-122 -383,1034 311,1141 -1475,808 487,1004 137,347 -1579,392 -861,692 419,175 -510,1078 -603,1227 1959,235 -2006,1195 -326,1147 1010,-28 -292,9 -342,1056 -54,1147 680,-201 47,897 -495,861 1092,-970 -521,1417 -321,475 1081,-553 -60,805 -696,828 2533,-656 -153,1309 0,111 834,-320 327,1005 532,776 724,-443 578,1345 -80,982 176,686 176,1664"/>
    <path class="fil1 str0" d="M31086 31912c6,448 -508,2256 -363,2493 3138,-441 -1063,1212 1167,1061 959,-65 -668,427 -467,1048 139,428 1606,-464 883,250 -779,770 -75,885 -446,2028 -298,920 557,-203 374,959 695,441 229,-392 270,663 25,656 1613,195 -468,1115 -739,326 177,399 -49,1018 -89,245 7,550 -48,740"/>
    <path class="fil1 str0" d="M34157 43628c-1511,-2043 -437,-721 362,-1924 406,-611 -503,451 326,-820 827,-1268 -859,606 -455,-1222 78,-350 141,-3695 -568,-2641 -397,31 90,-3022 -654,-2408 -482,398 399,-2436 -758,-2787 -1205,-365 -103,-3404 -1432,-1142 -27,46 -94,215 -87,279"/>
    <path class="fil1 str0" d="M32451 28386c472,-835 759,-522 1808,-920 -1520,4813 1245,778 188,2526 -489,808 1943,-355 1058,1179 -168,291 -420,1699 -138,1694 2058,-43 595,-49 863,724 1240,427 786,-159 161,754 -111,161 484,87 -285,1193 -659,949 3573,-11 2243,684 -2088,1091 800,339 89,895 -406,318 -269,2299 -300,2532"/>
    <path class="fil1 str0" d="M37853 43912c-251,-853 -144,-2112 -538,-1823 -784,-3245 296,-3291 -1313,-2869 -741,194 1406,-2400 -165,-1232 -545,405 342,-1388 -608,-853 -578,325 180,-1955 -549,-1299 -227,-164 482,-1523 -1469,-2218 -807,-287 -820,-1246 -543,-1647"/>
    <path class="fil1 str0" d="M39275 43685c600,-4165 -2810,-3723 -453,-2925 651,220 -1210,-1839 -288,-1370 1656,843 -834,-1391 -835,-1402 511,-66 1194,542 947,-1251 -157,-96 489,822 138,-294 -253,-806 1413,1230 86,-2227 -664,-1729 1428,2590 -494,-968 -714,-1323 823,1516 38,-1526 -755,-2922 250,-1933 360,276 10,197 469,1635 1309,1037 502,-358 -366,1939 -465,1961 2342,967 556,170 336,1684 -73,505 1905,203 1248,819 -2005,1879 1204,605 985,882 -895,1130 251,1138 1024,1138 -1110,682 -1200,2001 -1143,2952 26,431 809,104 506,474"/>
    <path class="fil1 str0" d="M42574 36860c-55,-736 -1269,-2778 -2150,-3271 -8,-4 -1621,-2131 -359,-1568 2241,1002 1181,1027 1264,-474 50,-907 1572,2055 754,-933 -153,-560 492,801 317,-954 -145,-1449 305,1165 1251,-1506 297,-840 143,1661 905,-1872 119,-551 63,505 782,-725 560,-958 661,-792 1285,-1906 456,-813 -1479,2358 -1479,3497 0,1838 -542,425 119,1224 612,739 -1206,2319 -431,2517 726,184 -1136,989 -224,2032 328,375 -723,496 -767,1417 -38,787 -483,613 213,1939 17,32 35,1463 -2,1550"/>
    <path class="fil1 str0" d="M45133 33163c803,-554 715,-2197 1513,-3232 807,-1046 319,374 1455,374 72,-1123 -1461,-3144 0,-2398 813,414 957,-2153 1536,-1786 474,301 -8,-946 1675,-1376 1871,-478 1591,-688 2989,-1606 688,-451 -1678,2171 -2534,2696 -2561,1572 2629,552 -1196,2190 720,155 -1909,1768 -1062,1768 1047,0 -1670,1783 388,1341 457,-98 -1771,1849 -1079,1916 1743,167 -1493,2046 -353,2033 1704,-21 -1208,566 -453,1810 692,1141 2372,-1294 -447,2531 -82,112 -950,2304 -953,2327"/>
    <path class="fil1 str0" d="M51048 41012c38,-4765 -227,-2078 493,-2186 697,-1207 -782,-3429 673,-2104 734,668 -128,-3248 1097,-1696 1290,-1442 -1046,-3131 700,-2404 7,3 1878,400 1593,-232 -1742,-3851 1409,1013 739,-2943 -84,-499 1004,740 -564,-1459 -88,-123 1506,-2323 -47,-366 -508,641 -237,-1595 -237,-2219 0,-1240 -36,-130 1241,-879 257,485 313,-403 299,1441 -13,1819 -869,700 213,886 354,1082 -284,1197 166,1800 658,882 -602,2716 1071,1531 718,-509 -756,5401 -522,5417 1524,104 2097,-953 -146,1659 -171,199 256,104 3,860 -777,2323 -1421,1825 -354,2202 -183,340 -385,615 -276,976"/>
    <path class="fil1 str0" d="M23977 45391c-2825,401 -3948,-1680 -5605,-1488 433,-122 2094,-3208 4814,-3929 690,-183 -913,-1953 1484,-317 685,467 1487,-997 3744,2374 96,144 1938,2229 1976,2203 2462,-1663 7095,1100 9650,119 703,-270 811,-66 1932,-701 1973,-1116 863,1691 5491,-442 2036,-938 2416,781 4088,-42 13,-6 2683,11 3551,-336 1530,-613 6325,-1740 7312,141 546,1041 1643,-1148 2062,-757 2135,1994 1287,440 2910,829 572,137 171,-681 1493,-1204 954,-378 -141,-2852 2298,-512 731,701 616,-1066 749,882 70,1023 1857,-187 1934,663 87,964 1658,-200 2062,522 461,823 1961,817 1924,1426 -41,673 2161,819 2161,1729 0,2147 1350,1200 2146,3307 441,1166 1421,211 1546,2719 69,1393 -95,409 -1052,776 -891,343 1121,1859 -1460,2446 -532,120 -1959,1817 -3741,102 -2190,-2108 -830,500 -2600,-2406 -36,-60 -657,91 -1345,-616 -1014,-1041 -8133,-3303 -7764,-957 315,2002 -1037,-217 -1805,2255 -588,1891 -1618,-22 -3262,133 -1467,139 674,-1130 -2819,-2270 -429,-140 -509,696 -2208,-37 -1492,-644 -3092,1660 -5111,-20 -355,-295 -2831,-53 -3340,-284 -587,-266 -518,460 -1175,-393 -1156,-1501 -3519,1264 -6298,1179 -1270,-38 -4915,854 -6347,1323 -1913,626 -442,3285 -3730,2767 -1461,-230 -1355,-832 -2872,198"/>
    <path class="fil1 str0" d="M59636 32225c-419,-465 -433,1113 176,672 -15,-225 -152,-645 -176,-672z"/>
    <path class="fil1 str0" d="M59408 30604c15,-35 17,-1416 26,-1543 296,-4221 -1104,-4764 -1334,-8239 24,291 846,2418 1054,3588 368,2064 773,1369 886,4228 8,199 79,394 118,587"/>
    <path class="fil1 str0" d="M59010 24917c-245,-65 -1881,-970 -1596,-986 3298,-191 -2286,-930 474,-1185 358,-33 -1872,-1079 337,-517 522,133 -2302,-1564 -1039,-1478 800,54 -406,-1371 537,-982 1909,789 -653,-2610 695,-299 719,1232 118,3803 675,3783 1412,-49 -226,1740 1179,2147 858,248 -330,1522 588,2010 559,296 -250,2140 156,2611 310,359 -258,2006 -606,2285 -241,193 -898,961 -945,1255"/>
    <path class="fil1 str0" d="M59749 41922c-3347,-1782 1417,-1217 1433,-1224 0,-508 -2916,-1589 -1597,-1686 1745,-129 -855,-3685 -858,-3702 2234,453 323,-1382 1095,-1308 340,33 -391,-3021 816,-180 278,654 -281,4352 492,4465 2768,405 -299,-123 -242,1454 41,1146 1147,-508 152,1198l-39 186"/>
    <path class="fil1 str0" d="M33531 45163c1095,50 3656,230 4286,1015 1311,1631 11469,-493 8195,-5 -1976,294 -5056,2546 -7702,1105 -860,-469 -3052,-1113 -3801,-1721l-125 -52"/>
    <path class="fil1 str0" d="M24854 45618c3,84 602,1134 707,2506 147,1941 734,1363 -1252,712 -1080,-354 -1282,907 -1034,365"/>
    <path class="fil1 str0" d="M61455 31969c1175,-3201 462,-1000 1765,-806 598,89 -1634,-2525 -639,-2067 1700,783 -1476,-1771 1416,-1288 3195,534 1423,413 1621,-1303 226,-72 1578,966 701,1436 -1977,1059 -2188,2770 -3817,4031 -738,571 -860,3200 -1783,3163"/>
    <path class="fil1 str0" d="M64242 36519c-119,-709 2,-3419 1139,-2371 1245,1149 1458,-1556 1882,-1768 737,524 -470,-2018 692,-2018 1816,0 -290,-1478 512,-2541 1008,-1337 -1268,-1227 630,-1378 233,-19 -676,-1291 -697,-1536 5158,-164 3205,-1220 3005,-2754 -7,-53 -567,-2333 175,-1601 822,812 -1153,4214 -1763,4953 -2605,3153 2167,4322 -621,6601 -708,578 407,589 -1800,1716 -1353,690 328,1077 -1718,3737 -426,555 -706,888 -924,1519"/>
    <path class="fil1 str0" d="M62195 26623c-763,-898 -99,-4236 -992,-3287 -2281,2424 610,-1209 367,-2476 -834,326 -457,-2082 -207,-2100 680,-49 2025,-1706 360,-1706 -1340,0 -746,-2334 -1807,227 -98,238 2813,1894 693,2911 -183,87 -523,2090 -384,2344 491,899 1303,1862 -552,1725"/>
    <path class="fil1 str0" d="M84034 55514c-945,201 -666,-567 -1188,-2005 -445,-1223 3547,-2390 4127,-1636 1951,2536 3439,587 6280,788 972,3781 3918,2884 2543,4160 -1946,1805 -6827,1129 -9250,807 -2368,-314 43,-494 -2633,-2801 -381,-328 -1570,-928 -1927,-848"/>
    <path class="fil1 str0" d="M89892 53126c503,-1449 -224,-3129 1858,-3465 2043,-329 3086,-571 5376,208 260,89 3145,3445 3313,4422 353,2059 -3457,1954 -4537,947 -135,-126 -1566,-1447 -1625,-1444 -703,28 -1396,-233 -2054,-270"/>
    <path class="fil1 str0" d="M92565 49145c49,-1459 -737,-6291 -487,-6958 883,1204 134,6065 1768,312 988,-3479 1178,-2826 204,422 -306,1018 -394,3851 365,161 321,-1560 2640,-6171 400,-941 -355,828 -1412,4110 356,1768 4386,-5810 2299,-3038 817,159 -1139,2457 1044,-1270 2208,-1758 52,-21 -2747,5080 -2776,7454l-12 120"/>
    <path class="fil1 str0" d="M107010 51704c-830,-324 -979,-1343 -2202,-1375 -938,-24 -1453,-2520 -1256,-5 25,315 -1982,443 -1976,470 470,1958 2362,358 649,1899 -281,253 901,654 1938,-497 109,-121 2697,663 2498,77 -55,-162 235,-614 349,-569z"/>
    <path class="fil1 str0" d="M636 50107c2420,-29 6868,-254 9179,232"/>
    <path class="fil1 str0" d="M80883 48287c3213,-812 9440,-1753 11682,858"/>
    <path class="fil1 str0" d="M96523 45955c5723,1859 12140,1191 18115,1180"/>
    <path class="fil1 str0" d="M37028 56379c741,-523 -944,-2615 2125,-2981 2337,-279 2690,-2213 4927,-2266 2333,-54 860,-353 2286,2503 617,1235 -826,40 -2055,2871 -1416,3259 -2696,582 -5850,432 -770,-36 -550,-1010 159,-957"/>
    <path class="fil1 str0" d="M45445 56322c3586,-1145 2197,1936 7239,1133 2246,-358 107,1410 1800,-3489 57,-164 -1157,-2367 -1430,-1510"/>
    <path class="fil1 str0" d="M53180 53194c2119,3122 621,3606 3163,5124 2281,1361 1997,-2148 3616,-2124 1758,26 2686,146 2900,-1469 20,-152 99,-166 -355,84"/>
    <path class="fil1 str0" d="M63246 55014c-179,288 -869,2907 284,3104 2524,432 4899,-3763 8997,-62 1500,1355 1576,-2003 2602,-2994 112,-109 114,-1258 -15,-1356l-115 39"/>
    <path class="fil1 str0" d="M62564 57232c-1839,-924 -1440,-2572 -4534,-763 -1534,897 -1041,608 396,1246 993,441 1324,-231 2673,-341 662,-54 1925,-38 2488,-198"/>
   </g>
  </g>
 </g>
</svg>
