<?xml version="1.0" encoding="UTF-8"?>
<!DOCTYPE svg PUBLIC "-//W3C//DTD SVG 1.1//EN" "http://www.w3.org/Graphics/SVG/1.1/DTD/svg11.dtd">
<!-- Creator: CorelDRAW X8 -->
<svg xmlns="http://www.w3.org/2000/svg" xml:space="preserve" width="111.588mm" height="179.399mm" version="1.1" style="shape-rendering:geometricPrecision; text-rendering:geometricPrecision; image-rendering:optimizeQuality; fill-rule:evenodd; clip-rule:evenodd"
viewBox="0 0 28118 45205"
 xmlns:xlink="http://www.w3.org/1999/xlink">
 <defs>
  <style type="text/css">
   <![CDATA[
    .str1 {stroke:black;stroke-width:88.873}
    .str0 {stroke:black;stroke-width:50.3958}
    .fil1 {fill:none}
    .fil2 {fill:black}
    .fil0 {fill:white}
   ]]>
  </style>
 </defs>
 <g id="Слой_x0020_1">
  <metadata id="CorelCorpID_0Corel-Layer"/>
  <g id="_2942772697584">
   <path class="fil0" d="M24322 45113c-178,-593 -267,-889 -267,-889 420,-1592 702,-3385 400,-5289 573,-5881 706,-8889 845,-9112 592,-1185 889,-1777 889,-1777 770,-62 1303,-299 1600,-712 592,-5217 385,-8714 -623,-10489 -2814,-1278 -4918,-2522 -6311,-3733 -458,-103 -636,-44 -533,177 -415,-414 -623,-622 -623,-622 302,-1362 480,-2191 534,-2489 688,-178 1221,-622 1600,-1333 317,-879 435,-1531 356,-1956 -370,-527 -726,-676 -1067,-444 203,-1244 233,-2281 89,-3112 -371,-852 -1111,-1741 -2223,-2666 -738,-322 -1167,-425 -1289,-311 -410,-190 -706,-308 -889,-356 -984,116 -1710,249 -2177,400 -1654,421 -2410,1266 -2889,2267 -281,1540 -651,2473 -489,3067 -237,889 -356,1333 -356,1333 70,1857 337,2805 800,2845 436,2088 791,3095 1067,3022 59,592 89,889 89,889 -1045,280 -1727,577 -2045,889 -3081,1007 -4622,1511 -4622,1511 -1438,2302 -2268,3665 -2489,4089 -296,1588 -681,2685 -1156,3289 -1602,2111 -2742,4585 -2444,5200 -272,2843 99,3273 133,3511 296,1101 800,1546 1511,1334 1955,282 3377,341 4267,178 345,4042 582,6175 711,6400 -484,1241 -573,2159 -267,2756 -301,1520 -560,1982 -533,2044 12267,59 18401,89 18401,89l0 0z"/>
   <path class="fil1 str0" d="M20749 6917c95,-923 129,-1658 103,-2206 57,45 82,96 77,154m-1789 -3325c-215,-175 -401,-276 -558,-305 -78,-20 -253,-148 -526,-385 -149,-83 -354,-109 -616,-77 -162,-68 -355,-149 -577,-243m3450 2372c-517,-711 -923,-1177 -1218,-1398m-2232 -974c77,-17 116,-26 116,-26 -565,60 -971,103 -1219,128 -188,18 -350,18 -487,0 -124,26 -189,103 -193,231 -206,4 -343,-9 -410,-38 -107,139 -201,212 -282,218 -345,97 -512,166 -500,205 -400,202 -717,386 -949,551 85,-26 145,-44 179,-51 -513,491 -902,1247 -1167,2270 -7,1371 24,2437 51,2629 160,-1679 335,-2650 526,-2911 114,178 221,289 321,334 -134,-260 -177,-465 -128,-616 219,118 450,225 692,321 -43,-112 -64,-167 -64,-167 865,-262 1904,-40 3117,667 1741,996 2805,1466 3193,1411 -577,-652 -897,-1135 -962,-1450 711,1503 967,2589 770,3258 0,1042 -69,1636 -205,1783 129,18 223,-12 282,-90 269,-1563 573,-2294 910,-2193 197,-52 295,-77 295,-77m179 -2087c-30,-315 -94,-590 -192,-825 60,8 90,25 90,52 -298,-718 -490,-1107 -577,-1167 27,-5 48,-1 64,12"/>
   <path class="fil1 str0" d="M12002 6647c-84,1373 -3,2356 244,2950 275,1481 515,2391 718,2732 236,528 371,840 504,1175 636,742 1520,919 2651,531 1136,-345 2106,-1269 2912,-2770"/>
   <path class="fil1 str0" d="M11993 6810c-405,-417 -590,-227 -555,569 87,484 173,758 257,820 66,383 126,606 179,667 91,260 194,447 309,560"/>
   <path class="fil1 str0" d="M11973 7330c-307,-527 -487,-606 -537,-238"/>
   <path class="fil1 str0" d="M11771 7276c-87,392 -113,699 -76,923"/>
   <path class="fil1 str0" d="M20749 6917c573,-288 894,-151 962,410 119,414 -112,1106 -692,2078 -243,245 -482,369 -719,372 -122,-5 -216,12 -282,51 -131,18 -250,1 -359,-51 -180,-16 -329,305 -449,962"/>
   <path class="fil1 str0" d="M20211 8187c189,325 95,586 -282,782"/>
   <path class="fil1 str0" d="M20454 7866c549,-999 921,-1128 1116,-385 9,329 -59,598 -205,808"/>
   <path class="fil1 str0" d="M21288 7968c139,650 -57,1120 -590,1411"/>
   <path class="fil1 str0" d="M20480 7981c118,90 276,86 475,-12"/>
   <path class="fil1 str1" d="M15927 7379c598,-517 1193,-547 1783,-90"/>
   <path class="fil1 str0" d="M16145 7417c466,188 919,171 1359,-51"/>
   <path class="fil1 str0" d="M16209 7263c-26,55 -17,102 26,141"/>
   <path class="fil1 str0" d="M17646 6930c-516,-328 -935,-384 -1257,-167 -197,128 -343,274 -436,436"/>
   <path class="fil1 str0" d="M13977 6981c-309,-463 -732,-502 -1269,-116"/>
   <path class="fil1 str0" d="M16722 7032c-121,80 -155,191 -102,334 88,127 175,186 259,177 170,-14 280,-95 330,-241 24,-97 20,-165 -12,-206"/>
   <ellipse class="fil2" cx="16908" cy="7212" rx="83" ry="90"/>
   <path class="fil1 str0" d="M14080 7237c-418,-398 -876,-411 -1372,-38"/>
   <path class="fil1 str0" d="M12810 7314c310,168 694,194 1155,77"/>
   <path class="fil1 str0" d="M12874 7205c-11,36 -9,61 7,77"/>
   <path class="fil1 str0" d="M13336 6994c-89,107 -102,214 -38,320 83,107 160,155 230,146"/>
   <path class="fil1 str0" d="M13888 7122c0,80 -13,135 -39,167 -39,90 -90,141 -150,155"/>
   <ellipse class="fil2" cx="13586" cy="7173" rx="96" ry="103"/>
   <path class="fil1 str0" d="M15484 6442c181,-351 674,-328 993,-493 3,-2 456,-32 257,29 0,3 712,74 737,94 -21,74 -201,-36 154,95 16,6 312,42 228,71 72,38 770,317 225,184 -332,-82 -692,-151 -1041,-98 123,-51 -113,-20 -196,12 -62,24 -622,194 -620,134 3,-142 29,-98 -232,-2 -81,30 -433,237 -475,92 -53,-182 -277,-304 -57,-243 42,12 -43,-242 85,-38 41,65 -121,-61 -58,163l0 0z"/>
   <path class="fil1 str0" d="M13977 6455c-14,-25 -91,-495 -91,-74 -54,-19 -194,-365 -208,-365 -72,92 -60,113 -260,-7 -70,-43 -432,-121 -435,-84 -8,89 -516,-93 -411,-27 89,56 -167,15 -250,85 -117,97 -399,163 -290,346 124,210 -186,367 160,121 165,-118 221,-103 393,-82 65,8 -192,-178 308,-58 57,14 487,145 487,143 -7,-140 85,9 282,56 59,14 205,89 353,123 173,39 -65,11 26,-53 20,-14 147,3 -64,-124l0 0z"/>
   <path class="fil1 str0" d="M13977 8853c-67,286 -132,495 -192,629 -87,208 -40,345 141,410"/>
   <path class="fil1 str0" d="M13875 9597c122,365 315,558 577,577 69,15 142,36 218,65 239,-26 359,-39 359,-39"/>
   <path class="fil1 str0" d="M15786 9572c-49,242 -143,387 -282,436"/>
   <path class="fil1 str0" d="M15452 9982c-197,-103 -389,-103 -577,0 -186,83 -203,126 -51,128"/>
   <path class="fil1 str0" d="M13862 7622c-384,244 -683,308 -898,193"/>
   <path class="fil1 str0" d="M13452 11303c437,42 719,80 846,116 180,139 368,169 564,89 514,58 933,53 1257,-12"/>
   <path class="fil1 str0" d="M14170 11098c292,204 531,221 718,51"/>
   <path class="fil1 str0" d="M13529 11534c601,580 1392,627 2372,141"/>
   <path class="fil1 str0" d="M20018 9828c-557,1895 -762,3122 -615,3681"/>
   <path class="fil1 str0" d="M19364 12850c404,496 734,853 988,1070"/>
   <path class="fil1 str0" d="M13272 13029c118,926 182,1774 192,2545"/>
   <path class="fil1 str0" d="M16094 14343c-63,444 -80,739 -52,885"/>
   <path class="fil1 str0" d="M14306 6991c109,652 -1,1272 -329,1862"/>
   <path class="fil1 str0" d="M13368 14302c-1483,328 -2178,617 -2084,868"/>
   <path class="fil1 str0" d="M11284 15170c-3003,869 -4504,1304 -4504,1304 -1076,1331 -1570,2141 -1482,2430"/>
   <path class="fil1 str0" d="M5303 18715c-285,426 -425,745 -420,959 -150,506 -308,802 -474,889 -188,353 -227,610 -119,771 -280,540 -418,935 -414,1185 -605,974 -882,1488 -830,1541 -110,148 -120,237 -30,266 81,-303 348,-382 800,-237 2004,653 3150,1176 3438,1571 81,24 121,83 118,178"/>
   <path class="fil1 str0" d="M10632 16474c-655,834 -1109,1249 -1363,1244 -679,751 -955,1245 -830,1482"/>
   <path class="fil1 str0" d="M8143 18311c-563,944 -820,2564 -771,4860"/>
   <path class="fil1 str0" d="M7076 19437c335,4069 433,6538 296,7408"/>
   <path class="fil1 str0" d="M7017 22104c-46,-469 -500,-1042 -1363,-1719"/>
   <path class="fil1 str0" d="M6661 19378c126,670 205,1144 237,1422"/>
   <path class="fil1 str0" d="M6009 21452c766,672 1161,1106 1185,1304"/>
   <path class="fil1 str0" d="M5002 21986c958,1138 1570,1888 1837,2252"/>
   <path class="fil1 str0" d="M7135 24889c-1202,-850 -2367,-1285 -3496,-1303"/>
   <path class="fil1 str0" d="M3016 24326c-963,1298 -1507,2473 -1630,3527 -401,1174 -559,1944 -474,2311 -79,1314 -39,2124 119,2430 38,301 512,420 1422,355 869,40 1304,60 1304,60 1466,449 3126,390 4978,-178 2594,-879 4372,-1413 5334,-1600 472,-102 789,-141 948,-119"/>
   <path class="fil1 str0" d="M3402 27793c2578,213 4257,430 5037,652 949,110 2352,70 4208,-118 2023,-204 3367,-184 4030,59 1315,-359 2165,-398 2548,-118"/>
   <path class="fil1 str0" d="M13227 14333c-306,1055 -183,1788 368,2200 2384,449 4636,-423 6757,-2613"/>
   <path class="fil1 str0" d="M12708 14458c-522,1660 -345,2628 532,2905 3111,268 5758,-819 7941,-3260 -356,-483 -632,-544 -829,-183"/>
   <path class="fil1 str0" d="M21181 14103c2157,1453 3737,2322 4741,2608 1383,798 1936,3248 1660,7349 -21,1587 -100,2575 -237,2963"/>
   <path class="fil1 str0" d="M21003 18726c-316,553 -474,830 -474,830 166,2480 8,4179 -474,5096 0,1067 0,1601 0,1601"/>
   <path class="fil1 str0" d="M24855 16889c-1483,684 -2313,1336 -2489,1955"/>
   <path class="fil1 str0" d="M21774 20089c-528,2062 -864,3267 -1008,3615 -316,869 -474,1304 -474,1304 -158,830 -237,1245 -237,1245 262,-978 1744,-1274 4445,-889 1268,192 2217,745 2845,1659"/>
   <path class="fil1 str0" d="M21062 24712c2155,-623 3952,-425 5394,592"/>
   <path class="fil1 str0" d="M25152 19793c-1486,1823 -2593,2751 -3319,2785"/>
   <path class="fil1 str0" d="M27345 27023c-324,525 -818,722 -1482,593"/>
   <path class="fil1 str0" d="M20351 26016c-888,1452 -1363,2637 -1422,3555 -2289,917 -3592,1431 -3912,1541 -494,51 -741,76 -741,76"/>
   <path class="fil1 str0" d="M7208 33191c3135,1939 7398,2590 12788,1951 838,386 1628,228 2370,-474 2012,-3677 3415,-6499 4210,-8465"/>
   <path class="fil1 str0" d="M23345 32857c381,381 697,432 947,152 215,-184 57,-491 -474,-919"/>
   <path class="fil1 str0" d="M23018 33631c216,227 423,237 622,30 238,-271 140,-540 -295,-804"/>
   <path class="fil1 str0" d="M8439 28445c-239,-275 -456,-532 -652,-770 -329,-719 -882,-1470 -1659,-2252"/>
   <path class="fil1 str0" d="M6208 25504c-549,-336 -971,-462 -1266,-377 -183,295 -163,513 60,651"/>
   <path class="fil1 str0" d="M7313 28090c-373,-153 -551,-311 -533,-474 -407,-709 -783,-1104 -1126,-1186 -390,-493 -844,-849 -1364,-1066 -616,-316 -912,-177 -888,414 1246,924 1917,1458 2015,1601 373,284 545,503 515,657"/>
   <path class="fil1 str0" d="M4290 26045c184,-122 272,-220 267,-296"/>
   <path class="fil1 str0" d="M4498 26223c158,-79 267,-188 326,-326"/>
   <path class="fil1 str0" d="M6839 27023c158,-79 276,-138 355,-178"/>
   <path class="fil1 str0" d="M3905 26223c-440,-403 -716,-403 -829,0 -132,217 6,454 414,711 791,502 1158,823 1100,964"/>
   <path class="fil1 str0" d="M3600 27810c-291,-235 -337,-458 -139,-668 155,-133 301,-113 437,60"/>
   <path class="fil1 str0" d="M24849 29952c-312,1485 -468,2227 -468,2227 -103,3329 -300,5640 -592,6934"/>
   <path class="fil1 str0" d="M22959 35024c923,3694 1279,6222 1067,7586 -119,908 -178,1363 -178,1363"/>
   <path class="fil1 str0" d="M23196 40891c340,2635 611,4067 813,4297"/>
   <path class="fil1 str0" d="M6824 33245c226,3800 448,6289 667,7468 -369,734 -507,1288 -415,1660 122,639 83,1211 -119,1718"/>
   <path class="fil1 str0" d="M7026 43897c-243,525 -365,787 -365,787 -13,347 -22,355 -9,344"/>
   <path class="fil1 str0" d="M16025 37335c-1860,3155 -3736,5210 -5630,6164"/>
   <path class="fil1 str0" d="M4113 31527c3818,-734 6820,-1030 9008,-889"/>
   <path class="fil1 str0" d="M5179 25512c238,-16 396,-75 475,-178"/>
   <path class="fil1 str0" d="M3757 25719c173,-58 301,-147 385,-267"/>
   <path class="fil1 str0" d="M3461 26430c96,-82 175,-141 237,-177"/>
   <path class="fil1 str0" d="M3787 27675c116,-65 185,-144 207,-237"/>
   <path class="fil1 str0" d="M23937 32416c-142,103 -192,221 -148,356"/>
  </g>
 </g>
</svg>
