<?xml version="1.0" encoding="UTF-8"?>
<!DOCTYPE svg PUBLIC "-//W3C//DTD SVG 1.1//EN" "http://www.w3.org/Graphics/SVG/1.1/DTD/svg11.dtd">
<!-- Creator: CorelDRAW X8 -->
<svg xmlns="http://www.w3.org/2000/svg" xml:space="preserve" width="136.806mm" height="143.624mm" version="1.1" style="shape-rendering:geometricPrecision; text-rendering:geometricPrecision; image-rendering:optimizeQuality; fill-rule:evenodd; clip-rule:evenodd"
viewBox="0 0 55855 58638"
 xmlns:xlink="http://www.w3.org/1999/xlink">
 <defs>
  <style type="text/css">
   <![CDATA[
    .str0 {stroke:black;stroke-width:81.6558}
    .fil0 {fill:none}
    .fil1 {fill:#E6E6E6}
   ]]>
  </style>
 </defs>
 <g id="Слой_x0020_1">
  <metadata id="CorelCorpID_0Corel-Layer"/>
  <polygon class="fil0 str0" points="55464,31849 948,32384 744,4784 55566,4682 "/>
  <polygon class="fil0 str0" points="55812,246 55659,4475 42,4603 144,41 "/>
  <polygon class="fil0 str0" points="170,33847 452,32207 55300,31643 55377,33539 "/>
  <polyline class="fil0 str0" points="170,33847 324,35128 55582,34513 55377,33539 "/>
  <line class="fil0 str0" x1="3852" y1="35184" x2="3852" y2= "57445" />
  <line class="fil0 str0" x1="19896" y1="34974" x2="20153" y2= "57445" />
  <line class="fil0 str0" x1="36145" y1="34761" x2="36454" y2= "57445" />
  <line class="fil0 str0" x1="52141" y1="34552" x2="52141" y2= "57445" />
  <line class="fil0 str0" x1="20046" y1="46040" x2="36322" y2= "45779" />
  <line class="fil0 str0" x1="36343" y1="47117" x2="20063" y2= "47337" />
  <rect class="fil0 str0" x="1526" y="57301" width="52788" height="1296"/>
  <rect class="fil1 str0" x="17622" y="43654" width="576" height="5617"/>
  <rect class="fil1 str0" x="37858" y="43654" width="576" height="5617"/>
  <line class="fil0 str0" x1="4471" y1="7646" x2="4471" y2= "29683" />
  <line class="fil0 str0" x1="51425" y1="8151" x2="51425" y2= "15640" />
  <line class="fil0 str0" x1="51353" y1="20105" x2="51353" y2= "27883" />
  <line class="fil0 str0" x1="2126" y1="5374" x2="4070" y2= "7318" />
  <line class="fil0 str0" x1="52757" y1="6020" x2="55180" y2= "4622" />
  <line class="fil0 str0" x1="7279" y1="6638" x2="47608" y2= "6638" />
 </g>
</svg>
