<?xml version="1.0" encoding="iso-8859-1"?>
<!-- Generator: Adobe Illustrator 19.0.0, SVG Export Plug-In . SVG Version: 6.00 Build 0)  -->
<svg version="1.1" id="Layer_1" xmlns="http://www.w3.org/2000/svg" xmlns:xlink="http://www.w3.org/1999/xlink" x="0px" y="0px"
	 viewBox="0 0 512 512" style="enable-background:new 0 0 512 512;" xml:space="preserve">
<g>
	<g>
		<path d="M457.858,200.897c4.755,0,8.61-3.855,8.61-8.61s-3.855-8.61-8.61-8.61h-0.263v-10.789h0.263c4.755,0,8.61-3.855,8.61-8.61
			s-3.855-8.61-8.61-8.61h-0.945c-3.664-28.879-22.094-54.426-48.607-66.868V55.842c0-4.755-3.855-8.61-8.61-8.61h-18.988v-4.29
			c0-9.023-3.854-17.655-10.573-23.682c-6.724-6.031-15.723-8.927-24.711-7.951l-51.826,5.657C284.387,6.571,270.95,0,256,0
			c-14.95,0-28.387,6.571-37.599,16.967l-51.826-5.657c-8.984-0.98-17.99,1.919-24.713,7.95
			c-6.718,6.026-10.571,14.659-10.571,23.683v4.29h-18.989c-4.755,0-8.61,3.855-8.61,8.61v32.959
			c-26.511,12.441-44.941,37.989-48.607,66.868h-0.945c-4.755,0-8.61,3.855-8.61,8.61s3.855,8.61,8.61,8.61h0.263v10.789h-0.263
			c-4.755,0-8.61,3.855-8.61,8.61s3.855,8.61,8.61,8.61h0.263v184.648h-0.263c-4.755,0-8.61,3.855-8.61,8.61s3.855,8.61,8.61,8.61
			h0.263v11.724h-0.263c-4.755,0-8.61,3.855-8.61,8.61s3.855,8.61,8.61,8.61h0.436C57.282,476.437,94.511,512,139.906,512
			c45.395,0,82.624-35.563,85.327-80.291h0.436c4.755,0,8.61-3.855,8.61-8.61s-3.855-8.61-8.61-8.61h-0.263v-11.724h0.263
			c4.755,0,8.61-3.855,8.61-8.61s-3.855-8.61-8.61-8.61h-0.263V200.897h0.263c4.755,0,8.61-3.855,8.61-8.61s-3.855-8.61-8.61-8.61
			h-0.263v-10.789h0.263c4.755,0,8.61-3.855,8.61-8.61s-3.855-8.61-8.61-8.61h-0.945c-0.995-7.844-3.075-15.442-6.118-22.598h4.81
			c13.245,0,25.042-6.29,32.583-16.034c7.541,9.743,19.338,16.034,32.583,16.034h4.81c-3.042,7.156-5.122,14.754-6.118,22.598
			h-0.945c-4.755,0-8.61,3.855-8.61,8.61s3.855,8.61,8.61,8.61h0.263v10.789h-0.263c-4.755,0-8.61,3.855-8.61,8.61
			s3.855,8.61,8.61,8.61h0.263v184.648h-0.263c-4.755,0-8.61,3.855-8.61,8.61s3.855,8.61,8.61,8.61h0.263v11.724h-0.263
			c-4.755,0-8.61,3.855-8.61,8.61s3.855,8.61,8.61,8.61h0.436C289.471,476.437,326.7,512,372.094,512s82.624-35.563,85.327-80.291
			h0.436c4.755,0,8.61-3.855,8.61-8.61s-3.855-8.61-8.61-8.61h-0.263v-11.724h0.263c4.755,0,8.61-3.855,8.61-8.61
			s-3.855-8.61-8.61-8.61h-0.263V200.897H457.858z M440.375,385.545H303.812V200.897h136.563V385.545z M440.375,183.677H303.812
			v-10.789h136.563V183.677z M439.532,155.669H304.656c3.708-23.246,19.419-43.488,41.518-52.575h51.839
			C420.112,112.181,435.825,132.422,439.532,155.669z M391.087,64.452v21.421h-37.984V64.452H391.087z M120.914,64.452h37.984
			v21.421h-37.984V64.452z M113.987,103.093h51.839c22.099,9.087,37.811,29.329,41.519,52.575H72.468
			C76.175,132.422,91.888,112.181,113.987,103.093z M71.624,172.888h136.563v10.789H71.624V172.888z M71.624,200.897h136.563
			v184.648H71.624V200.897z M139.906,494.78c-35.895,0-65.389-27.849-68.063-63.071h136.125
			C205.296,466.931,175.802,494.78,139.906,494.78z M71.624,414.489v-11.724h136.563v11.724H71.624z M223.417,115.851h-14.59
			c-8.365-11.45-19.539-20.869-32.708-27.05V55.842c0-4.755-3.855-8.61-8.61-8.61h-18.996v-4.29c0-4.202,1.722-8.06,4.849-10.865
			c3.132-2.809,7.162-4.103,11.348-3.649l44.017,4.805c-1.918,5.315-2.97,11.042-2.97,17.011c0,24.325,17.377,44.662,40.368,49.263
			C242.927,108.993,233.966,115.851,223.417,115.851z M256,83.268c-18.209,0-33.024-14.815-33.024-33.024S237.791,17.22,256,17.22
			s33.024,14.815,33.024,33.024S274.209,83.268,256,83.268z M288.583,115.851c-10.55,0-19.511-6.858-22.707-16.343
			c22.991-4.602,40.368-24.94,40.368-49.265c0-5.968-1.052-11.696-2.97-17.01l44.018-4.805c4.186-0.455,8.213,0.84,11.347,3.652
			c3.128,2.806,4.851,6.664,4.851,10.862v4.29h-18.998c-4.755,0-8.61,3.855-8.61,8.61v32.959
			c-13.171,6.181-24.343,15.599-32.708,27.05H288.583z M372.094,494.78c-35.895,0-65.389-27.849-68.063-63.071h136.125
			C437.483,466.931,407.989,494.78,372.094,494.78z M303.812,414.489v-11.724h136.563v11.724H303.812z"/>
	</g>
</g>
<g>
	<g>
		<path d="M256,28.962c-4.755,0-8.61,3.855-8.61,8.61v12.671c0,4.755,3.855,8.61,8.61,8.61s8.61-3.855,8.61-8.61V37.572
			C264.61,32.817,260.755,28.962,256,28.962z"/>
	</g>
</g>
<g>
</g>
<g>
</g>
<g>
</g>
<g>
</g>
<g>
</g>
<g>
</g>
<g>
</g>
<g>
</g>
<g>
</g>
<g>
</g>
<g>
</g>
<g>
</g>
<g>
</g>
<g>
</g>
<g>
</g>
</svg>
