<?xml version="1.0" encoding="UTF-8"?>
<!DOCTYPE svg PUBLIC "-//W3C//DTD SVG 1.1//EN" "http://www.w3.org/Graphics/SVG/1.1/DTD/svg11.dtd">
<!-- Creator: CorelDRAW X8 -->
<svg xmlns="http://www.w3.org/2000/svg" xml:space="preserve" width="46.2101mm" height="23.3417mm" version="1.1" style="shape-rendering:geometricPrecision; text-rendering:geometricPrecision; image-rendering:optimizeQuality; fill-rule:evenodd; clip-rule:evenodd"
viewBox="0 0 34452 17402"
 xmlns:xlink="http://www.w3.org/1999/xlink">
 <defs>
  <style type="text/css">
   <![CDATA[
    .fil0 {fill:#00A0E3}
   ]]>
  </style>
 </defs>
 <g id="Слой_x0020_1">
  <metadata id="CorelCorpID_0Corel-Layer"/>
  <path class="fil0" d="M19672 14374c-97,1429 -998,2616 -2141,2957 -725,215 -1329,-69 -1447,-680 -101,-516 344,-984 1070,-1058 941,-94 1804,-347 2518,-1219zm-15961 -10570c-327,-468 -1309,-1016 -1738,-887 -610,180 -407,839 105,745 503,-174 1230,-47 1633,142zm18787 9807c44,123 312,91 533,59 -71,245 -274,302 -499,376 -106,34 -214,51 -326,49 -111,-2 -417,-41 -485,-78 -67,-38 -117,-85 -146,-140 -29,-54 -49,-109 -53,-159 -4,-50 -8,-95 -7,-132 0,-29 14,-85 40,-163 247,-753 1492,-610 943,188zm-5024 -8430c2,-172 4,-324 6,-443 2,-120 2,-192 3,-213 1,-29 -3,-63 -8,-99 -5,-36 -22,-70 -46,-99 -24,-29 -59,-53 -103,-67 -43,-14 -97,-10 -160,9 -138,42 -234,41 -282,1 -49,-40 -54,-88 -37,-148 8,-27 12,-110 32,-240 20,-131 73,-271 157,-419 83,-149 209,-281 373,-395 164,-113 399,-170 699,-165 289,4 544,84 761,240 217,155 325,446 318,868 -3,211 -6,466 -10,761 -5,383 -84,1952 -13,2202 20,71 60,131 120,178 59,48 139,76 240,83 100,7 234,-37 405,-124 169,-86 295,-162 376,-237 81,-75 139,-142 175,-202 36,-59 55,-113 59,-160 3,-47 6,-89 9,-125 2,-37 7,-144 13,-323 7,-179 17,-370 31,-574 15,-204 25,-393 31,-568 6,-175 11,-277 13,-306 4,-58 -11,-114 -45,-168 -34,-54 -127,-65 -281,-42 -76,12 -132,7 -169,-6 -37,-14 -61,-32 -72,-55 -11,-22 -16,-47 -14,-72 2,-25 3,-45 5,-60 0,-14 12,-83 33,-206 21,-123 75,-254 160,-394 86,-141 211,-264 376,-369 165,-105 392,-147 680,-127 288,20 504,94 646,221 142,128 242,268 301,422 58,154 89,299 92,434 2,136 3,218 1,247l-186 2620c-15,217 72,313 263,293 9,-1 19,-1 29,0 305,-18 922,-690 981,-1272l1 1c-8,-460 -1,-857 17,-1062 5,-50 6,-104 1,-160 -6,-55 -22,-107 -48,-154 -26,-47 -63,-83 -110,-107 -48,-24 -111,-29 -188,-17 -168,24 -265,15 -292,-24 -26,-40 -36,-93 -28,-158 3,-29 19,-108 48,-237 28,-129 88,-261 180,-397 92,-136 227,-252 403,-348 176,-96 414,-126 714,-90 287,35 491,98 613,190 122,92 198,177 246,245 49,69 107,108 155,128 48,21 127,7 234,-48 110,-58 274,-124 497,-188 223,-65 441,-85 653,-59 100,12 253,55 459,127 207,73 409,209 606,409 197,201 356,481 477,841 122,360 147,833 76,1420 -71,586 -192,1062 -363,1427 -171,365 -363,649 -578,850 -214,202 -449,291 -655,395 -589,297 -1375,61 -1705,-301 -34,232 -117,580 -110,985 12,667 109,1494 122,2217 16,867 58,1416 127,1754 224,1095 703,0 975,419 166,255 -680,1256 -1475,1242 -210,-3 -383,-28 -519,-75 -135,-46 -243,-97 -322,-153 -80,-56 -135,-108 -165,-156 -30,-48 -51,-79 -63,-94 -12,-29 -37,-59 -73,-89 -82,-67 -732,1119 -2358,353 -933,-439 -1086,-1663 -443,-2370 764,-840 2150,-881 2720,-682 50,-74 160,-277 145,-488 -19,-249 -177,-511 -268,-592 -91,-81 -205,-124 -341,-126 -248,-4 -460,87 -637,273 -101,101 -174,174 -218,221 -44,46 -91,88 -141,123 -51,36 -123,73 -216,111 -94,39 -221,57 -382,54 -174,-3 -331,-55 -472,-156 -140,-101 -209,-232 -206,-392 1,-81 34,-195 99,-343 64,-149 188,-296 370,-442 182,-147 429,-274 741,-381 311,-108 547,-173 1043,-165 356,6 871,-663 738,-2060 -7,-78 -14,-159 -20,-242 -403,471 -873,929 -1506,1121 -143,53 -314,73 -514,58 -188,-13 -346,-55 -473,-126 -127,-72 -229,-148 -305,-230 -76,-82 -130,-162 -162,-237 -33,-75 -55,-128 -65,-158 -10,-30 -21,-62 -31,-95 -10,-34 -27,-59 -51,-75 -3,-2 -189,161 -441,282 -234,112 -534,181 -607,198 -112,-247 -360,-517 -615,-668 -314,-185 -581,-261 -868,-303 -208,-30 -552,45 -566,-122 -38,-465 172,-1528 178,-1975zm-2714 9913c464,-38 835,-380 1053,-641 358,526 675,669 1642,686 210,-4 465,-50 764,-140 299,-89 590,-239 872,-450 283,-210 531,-494 740,-846 449,-755 612,-2141 163,-2918 -299,-515 -1050,-1206 -1682,-1124 403,-100 542,-167 694,-357 152,-191 246,-379 280,-564 23,-124 7,-244 -18,-360 -154,-397 -537,-704 -903,-845 -1510,-583 -2730,455 -2808,2019l-55 1091 12 1703 -12 712c-39,282 -129,455 -247,552 -21,9 -42,19 -63,32 -57,36 -109,53 -159,52 -99,-2 -188,-58 -267,-169 -78,-111 -153,-245 -225,-403 -72,-158 -137,-322 -196,-491 -59,-168 -112,-308 -160,-418 -12,-22 -21,-39 -27,-50 -6,-11 -9,-24 -9,-38 1,-30 18,-55 48,-76 504,-343 1126,-1573 884,-2228 -36,-98 -111,-243 -210,-357 -98,-115 -230,-208 -324,-254 -152,-73 -342,-115 -565,-119 -223,-4 -417,34 -578,110 -161,76 -302,170 -414,272 -112,102 -200,206 -256,302 -56,96 -87,164 -87,201 -2,80 35,128 109,144 74,16 156,30 241,37 85,7 168,28 240,53 336,119 182,1388 -937,1368 -37,-1 -71,-5 -102,-13 -31,-8 -52,-44 -63,-110 -11,-66 -19,-170 -23,-312 -3,-143 -3,-349 2,-619 -9,-197 -52,-364 -131,-500 -78,-136 -172,-246 -282,-328 -110,-82 -224,-140 -341,-175 -117,-35 -219,-53 -306,-55 -272,-5 -490,41 -653,136 -162,96 -291,209 -387,338 -95,130 -159,260 -192,391 -34,131 -51,229 -52,295 -1,36 8,82 25,137 18,55 58,83 120,84 37,1 90,-9 158,-30 69,-21 122,-31 159,-30 87,1 145,39 175,112 29,74 44,140 43,198 -1,22 -2,102 -5,241 -2,138 -5,304 -8,498 -4,193 -10,402 -21,628 -10,226 -17,440 -20,640 -61,601 -311,753 -605,726l0 1c-87,-10 -177,-44 -219,-101 -20,-28 -93,-128 -124,-232 -37,-127 -32,-265 -31,-294 5,-290 73,-633 110,-991 105,-1020 147,-2162 -774,-2540 -221,-90 -448,-177 -675,-202 -228,-25 -406,-40 -529,-42 -496,-9 -901,93 -1212,200 -510,176 -1716,1125 -1005,1636 141,101 298,153 471,156 162,3 289,-15 383,-54 93,-38 165,-75 215,-111 50,-35 98,-76 142,-123 44,-47 119,-118 217,-221 628,-655 1133,-262 1273,219 84,289 114,601 -6,775 -1162,-482 -2281,-8 -2897,629 -1379,1425 521,3323 2635,2169 104,-56 141,-190 178,-160 36,30 60,60 72,89 12,15 34,46 64,94 30,48 85,100 164,156 80,56 187,108 323,154 136,46 309,71 519,74 47,1 92,1 135,-1l2 0c143,-6 269,-26 376,-60 378,-101 659,-308 901,-556 11,24 25,49 39,74 72,125 175,236 310,333 135,97 326,148 573,153 261,4 472,-36 635,-121 162,-84 291,-186 386,-305 95,-118 159,-243 193,-374 33,-131 50,-240 52,-327 2,-110 -10,-183 -34,-220 -24,-37 -55,-55 -92,-56 -24,-1 -65,6 -121,20 -56,13 -115,20 -177,18 -99,-1 -154,-59 -164,-172 -10,-113 -14,-254 -11,-422 2,-102 16,-202 42,-300 27,-98 108,-146 244,-143 124,2 222,62 295,180 11,44 38,130 79,259 41,128 100,275 178,440 78,166 167,341 270,525 102,184 216,354 344,509 127,156 274,284 439,386 99,60 201,103 307,128l0 0c72,18 145,27 220,28 93,2 177,-3 254,-15zm3191 -3401c107,186 -463,570 -928,479l-3 180c-2,109 -4,221 -6,334 -2,113 -4,217 -5,311 -2,95 0,175 5,241 5,66 7,106 7,121 12,29 30,68 54,116 24,47 60,95 109,144 48,48 113,91 193,129 79,38 181,58 305,60 124,2 227,-16 308,-55 81,-39 150,-85 207,-139 590,-557 825,-2674 26,-3074 -1117,-560 -1105,1064 -272,1153zm-11237 971c708,-132 648,488 374,699 44,177 419,238 723,138 -267,398 -1132,487 -1446,314 -238,-131 -284,-328 -226,-600 31,-149 147,-277 221,-351 82,-84 208,-152 353,-200l1 0zm7298 -12099c-526,-404 -1489,-121 -1784,291 -181,249 -183,525 22,679 248,188 455,85 618,-131 81,-107 141,-240 229,-336 230,-253 522,-427 915,-503zm335 3782c136,-3 451,85 587,260 228,296 -297,743 -632,767 -113,180 434,638 904,636 0,114 -4,229 -12,343 -12,176 -28,334 -48,473 1,37 -10,84 -33,144 -23,59 -55,118 -96,178 -42,60 -100,114 -174,160 -73,47 -167,72 -280,77 -289,11 -492,-47 -628,-146 -262,-191 -487,-730 -491,-1275 -4,-519 201,-1047 337,-1298 102,-188 259,-305 535,-316l31 -3zm11253 2766c281,-202 -308,-468 -785,-387 40,-510 57,-846 266,-1352 33,-80 201,-303 264,-367 33,-32 68,-62 106,-89 38,-26 79,-50 123,-70 87,-41 193,-54 318,-39 249,30 411,110 483,240 73,131 107,302 90,513 -9,109 -23,245 -30,409 -8,165 -22,334 -43,508 -21,173 -47,339 -79,497 -31,158 -69,284 -121,371 -102,172 -136,392 -266,452 -423,195 -935,-248 -326,-686zm-20175 -2190c59,187 71,359 35,512 -37,153 -98,286 -181,396 -83,111 -178,200 -281,267 -104,68 -192,114 -264,136 -71,23 -163,37 -274,41 -110,5 -219,-5 -325,-28 -106,-24 -206,-67 -298,-130 -92,-62 -191,-158 -226,-269 142,-105 349,-227 418,-336 390,-619 -889,-608 -1110,144 -242,826 -40,1630 404,2161 536,643 1426,887 2308,289 567,-384 1121,-1124 1240,-2216l-1 -5c-17,-174 -32,-321 -44,-441 -12,-120 -19,-191 -22,-212 -3,-29 -9,-62 -19,-97 -10,-36 -29,-67 -57,-93 -28,-27 -64,-45 -109,-55 -46,-10 -98,-2 -159,27 -133,57 -227,68 -281,33 -53,-34 -71,-82 -52,-143 -3,-29 -1,-109 4,-242 6,-133 42,-277 108,-434 66,-157 174,-302 325,-435 151,-132 377,-214 676,-244 288,-29 549,22 783,152 234,130 373,406 416,827 21,210 46,462 76,756 30,294 55,578 77,850 21,273 42,515 63,725 21,211 34,338 39,381 4,44 22,99 55,165 32,67 81,118 147,156 68,37 151,50 251,40 887,-87 896,-1224 892,-1839 -1,-203 -10,-396 -16,-569 -7,-172 -23,-238 -23,-265 1,-57 -22,-115 -58,-163 -132,-174 -201,-68 -412,-126 -38,-11 -65,-42 -76,-61 -11,-20 -20,-47 -20,-71 1,-25 -1,-47 -1,-60 1,-14 4,-46 16,-170 11,-123 54,-260 127,-406 72,-146 189,-281 343,-399 154,-117 380,-181 667,-183 288,-3 511,53 662,166 151,113 266,248 335,395 70,147 115,292 128,425 13,134 23,220 22,246 -26,471 -454,2902 294,2701 339,-91 122,-809 112,-1076 -5,-142 -19,-276 -6,-399 66,-621 246,-1522 879,-1944 214,-143 440,-282 658,-326 423,-87 607,-82 1027,-28 -66,-71 -160,-138 -282,-203 -121,-65 -285,-144 -490,-239 -370,-161 -636,-370 -797,-627 -161,-256 -214,-510 -161,-760 54,-250 221,-477 503,-681 281,-204 698,-310 1198,-375 63,-7 122,-15 179,-17 56,-2 116,-5 179,-7 125,-5 216,-32 270,-82 55,-49 97,-102 126,-157 24,-46 77,-300 79,-300 20,-9 403,89 446,110 103,51 193,111 271,181 78,70 144,145 197,223 54,78 81,143 83,194 8,211 -45,381 -160,509 -114,129 -268,230 -460,303 -192,73 -404,123 -636,150 -231,27 -460,37 -687,31 -38,2 -62,15 -74,41 -12,26 -23,54 -34,84 -22,95 -3,179 56,249 60,71 140,137 244,199 103,62 221,125 356,189 134,65 272,134 413,209 232,137 432,274 601,410 168,136 310,293 423,471 114,178 197,385 250,620 53,235 86,520 98,856l22 569c23,590 -94,1058 -218,1453 -152,482 -1085,1240 -1449,1347 -286,84 -542,130 -768,139 -189,7 -393,-7 -615,-43 -221,-35 -441,-111 -659,-226 -218,-116 -420,-286 -604,-509 -26,-30 -50,-61 -73,-92 -124,225 -258,428 -403,607l-1 2c-51,69 -112,135 -184,197 -146,125 -350,200 -612,227 -188,19 -351,4 -488,-44 -137,-49 -251,-107 -340,-175 -89,-68 -156,-136 -200,-205 -45,-69 -76,-117 -91,-145 -15,-27 -31,-57 -47,-88 -15,-32 -37,-54 -63,-65 -27,-12 -67,-5 -121,23 -54,27 -121,82 -201,163 -81,81 -176,168 -287,260 -110,92 -231,179 -362,262 -130,83 -265,153 -405,211 -139,58 -284,95 -434,110 -288,29 -544,-42 -770,-213 -223,-169 -346,-327 -404,-630 -190,529 -686,1139 -1256,1385 -2083,898 -4828,-288 -4548,-3145 37,-378 146,-716 322,-1009 177,-293 405,-542 683,-745 278,-204 585,-359 920,-465 216,-69 439,-105 668,-109 229,-5 447,24 650,86 204,61 386,155 545,280 158,125 269,286 330,480zm25027 3048c250,193 -189,370 -595,285 6,27 12,59 19,97 9,50 34,104 73,160 40,56 94,110 160,161 67,50 162,88 285,113 123,24 229,25 317,2 88,-23 165,-56 231,-99 67,-42 117,-86 152,-131 35,-45 70,-77 79,-107 36,-126 51,-239 76,-331 25,-91 40,-178 43,-259 7,-222 -44,-386 -151,-493 -685,-687 -1171,229 -689,602zm-1822 -1219c46,-194 80,-378 120,-545 40,-167 71,-307 94,-422 23,-114 37,-182 41,-204 29,-142 -25,-228 -160,-255 -395,-78 -534,508 -536,484 -9,-116 2,-378 -53,-604 -40,-164 -68,-296 -131,-420 -258,-510 699,-892 1698,-692 86,18 189,51 307,101 118,49 218,124 301,222 83,99 147,229 191,390 45,162 42,364 -7,607l-101 504c-11,57 1,105 39,142 37,37 89,39 159,21 92,-24 240,-28 439,-29 199,-1 347,8 446,28 37,8 110,26 220,56 109,29 233,83 371,163 137,80 275,193 412,340 137,147 260,338 344,583 70,203 94,426 98,661 4,235 -11,472 -100,689 -137,333 -301,618 -493,812 -192,195 -431,403 -648,499 -2328,1033 -3549,-1008 -3051,-3131zm-11710 2786c2091,-592 727,-1913 192,-1070 -222,350 -183,823 -192,1070zm15374 -3334c965,-168 2040,752 2144,1493 67,451 -119,814 -493,875 -453,77 -677,-193 -743,-587 -43,-260 -37,-433 -63,-600 -67,-426 -203,-669 -845,-1181zm-28752 -2289c-924,-374 -2887,-30 -3339,605 -647,898 407,1603 1010,927 508,-776 1572,-1447 2329,-1532zm16437 10632c-340,824 192,2024 806,2289 966,414 1345,-857 670,-1168 -236,-109 -486,-173 -705,-289 -319,-170 -589,-423 -771,-832z"/>
  <path class="fil0" d="M26444 10463l-6 -3c-40,-31 -105,-21 -137,22 -28,42 -19,99 18,131l125 -150zm297 -361l-232 282 -10 -6c-90,-63 -215,-42 -278,47 -64,85 -46,201 36,266l-445 537c-61,-297 -100,-628 -107,-1002 378,-71 725,-111 1036,-124zm-422 511l5 3c45,31 105,20 137,-23 32,-42 23,-99 -17,-130l-125 150zm171 89l-625 755c-17,-74 -35,-150 -53,-229l445 -537 6 7c70,47 158,47 227,4zm498 -604l-128 153 -10 -4 7 9 -288 348c32,-78 7,-167 -60,-220l232 -282c84,-3 167,-4 247,-4zm-42 600c19,-191 -18,-367 -89,-442l-288 348 -23 47 -56 51 -625 755c37,141 84,272 129,396l311 -376c-93,-25 -196,-69 -300,-140 148,42 276,51 386,36l555 -675zm475 -576l-314 383c-40,-118 -124,-211 -247,-254l128 -153c151,2 295,10 433,24zm-1030 1251c374,-49 532,-380 555,-675l-555 675zm2394 -773l-1551 1882c-164,-239 -241,-536 -239,-763 -195,480 -118,793 66,975l-255 309c-328,-274 -614,-644 -812,-1150l311 -376c616,159 949,-556 802,-972l314 -383c584,61 1023,237 1364,478zm1970 3180l-462 560c-41,20 -83,36 -135,50 -74,-105 -178,-209 -314,-308 -87,-69 -232,-114 -417,-154 -482,-108 -1236,-175 -1939,-497 -197,-90 -386,-200 -569,-337 -40,-29 -76,-59 -113,-91l255 -309c187,189 491,237 718,183 -236,-59 -418,-210 -545,-395l1551 -1882c95,64 178,133 258,207 534,499 779,1173 988,1713 138,362 267,663 456,812 98,76 195,133 289,178 11,86 4,179 -21,270zm164 -197l-79 -33 20 104 59 -71zm-626 757l462 -560c-53,225 -212,444 -462,560zm-71 90c398,524 220,1075 760,1399 389,-368 499,-886 374,-1175 323,20 936,-266 1169,-740 -365,-420 -952,-75 -1606,-331l-59 71c46,365 -177,739 -638,776z"/>
 </g>
</svg>
