<?xml version="1.0" encoding="UTF-8"?>
<!DOCTYPE svg PUBLIC "-//W3C//DTD SVG 1.1//EN" "http://www.w3.org/Graphics/SVG/1.1/DTD/svg11.dtd">
<!-- Creator: CorelDRAW X8 -->
<svg xmlns="http://www.w3.org/2000/svg" xml:space="preserve" width="45.4998mm" height="45.5081mm" version="1.1" style="shape-rendering:geometricPrecision; text-rendering:geometricPrecision; image-rendering:optimizeQuality; fill-rule:evenodd; clip-rule:evenodd"
viewBox="0 0 6050 6051"
 xmlns:xlink="http://www.w3.org/1999/xlink">
 <defs>
  <style type="text/css">
   <![CDATA[
    .fil0 {fill:black;fill-rule:nonzero}
   ]]>
  </style>
 </defs>
 <g id="Слой_x0020_1">
  <metadata id="CorelCorpID_0Corel-Layer"/>
  <path class="fil0" d="M5645 1513c-835,-1447 -2685,-1943 -4132,-1107 -1447,835 -1943,2685 -1107,4132 560,971 1577,1513 2623,1513l9 0c510,-1 1027,-132 1500,-406 947,-546 1487,-1528 1512,-2547l0 -153c-13,-488 -144,-980 -405,-1432zm-1410 3608c-1157,668 -2637,272 -3305,-886 -669,-1157 -272,-2637 885,-3305 1158,-669 2638,-272 3306,885 668,1158 272,2638 -886,3306zm-121 -2219l-1584 -923c-144,-85 -261,-17 -260,150l8 1833c1,168 119,236 264,152l1572 -908c144,-83 145,-219 0,-304z"/>
 </g>
</svg>
