<?xml version="1.0" encoding="UTF-8"?>
<!DOCTYPE svg PUBLIC "-//W3C//DTD SVG 1.1//EN" "http://www.w3.org/Graphics/SVG/1.1/DTD/svg11.dtd">
<!-- Creator: CorelDRAW X8 -->
<svg xmlns="http://www.w3.org/2000/svg" xml:space="preserve" width="84.6666mm" height="84.668mm" version="1.1" style="shape-rendering:geometricPrecision; text-rendering:geometricPrecision; image-rendering:optimizeQuality; fill-rule:evenodd; clip-rule:evenodd"
viewBox="0 0 97458 97460"
 xmlns:xlink="http://www.w3.org/1999/xlink">
 <defs>
  <style type="text/css">
   <![CDATA[
    .fil0 {fill:black;fill-rule:nonzero}
   ]]>
  </style>
 </defs>
 <g id="Слой_x0020_1">
  <metadata id="CorelCorpID_0Corel-Layer"/>
  <path class="fil0" d="M48731 0c-26912,0 -48731,21817 -48731,48729 0,26910 21819,48731 48731,48731 26910,0 48727,-21821 48727,-48731 0,-26912 -21817,-48729 -48727,-48729zm15147 68417l-30298 0c-2503,0 -4539,-2037 -4539,-4540l0 -30295c0,-2505 2036,-4540 4539,-4540l30296 0c2505,0 4540,2037 4540,4540l0 30295c0,2503 -2035,4540 -4538,4540z"/>
 </g>
</svg>
